<svg xmlns="http://www.w3.org/2000/svg" viewBox="0 0 1280 200" fill="currentColor">
<path d="M1174.8 59.2c0 19.9 10.1 33.5 23.5 44.1 16.4 13 35.6 21.3 35.6 35.4 0 10.1-5.5 15.9-14.3 15.9-10.9 0-14.8-12.3-14.8-24.5 0-3.2-1.6-5-4.8-5.3-7.4-.2-14.8-.2-22.2 0-3.2.2-5.1 1.8-5.1 5-1 30.8 14.3 53.4 48.3 53.4 25.6 0 44.8-16 44.8-41 0-38.9-25.9-47.7-40.7-60.4-15.4-13-18.4-16-18.4-27.7 0-5.8 3.2-11.5 9.4-11.5 10.9 0 12.5 8.7 12.5 18.2 0 3.2 1.6 5 4.9 5.3 7.3.2 14.5.2 21.9 0 3.5-.2 5-2 5-5.3-.8-29.8-13.5-46.9-40.8-46.9-29.8 0-44.8 15.7-44.8 45.3ZM1051 179.8a246 246 0 0 1 26 0c3.5 0 5.4-1.6 5.4-5.1-.7-33.3-1-95.9-.5-113.9 0-3.7.3-6.2.3-9.2 0-1.9.9-2.8 2.7-3 40.7-3.5 60-3 73-1 3.5.7 5.3-.9 5.1-4.6-.2-6.7-.2-13.1.2-20 0-3-1.1-5.2-4.1-5.9-32.1-6.2-106.3 5.6-135 2.1-3.4-.2-5.2 1.2-5 4.9.2 7 .2 14-.2 21 0 3.2 1.3 5.3 4.6 5.5 7.4 1 15 .5 19.6-.2 1.9-.2 3 .7 3 2.5.2 40 0 95.2-.4 122 0 3.3 1.8 4.9 5.3 4.9Zm50.3.2c17.1-.5 35.4-.5 52.5 0 3.2 0 5.3-1.6 5.3-5 .2-5.6.2-12.6 0-18.3 0-3.3-2.1-5.1-5.3-4.9-7.7.2-14.6.5-22.4 0-1.9-.2-2.8-1.4-2.8-3v-17.5c0-1.7 1-2.8 2.8-2.8 4.3-.2 9-.5 13.6 0 3.2 0 5.3-1.6 5.3-5.1.2-4.6.2-7.8 0-12.5-.2-3.4-2-5-5.3-4.8-4.9.2-9.5.2-13.9 0-1.8-.3-2.7-1.4-2.7-3V89.2c0-1.6.9-2.8 2.7-3 8.6-.4 17.1-.4 25.4 0 3.3 0 5.3-1.6 5.3-4.8.3-5.8.3-12.7 0-18.5 0-3.3-2-5.1-5.3-5.1-17.5.5-37.6.5-55.4 0-3.2 0-5 1.8-4.9 5 .5 29.2.7 88.3 0 112.1-.2 3.3 1.7 5.1 5.1 5.1ZM913.8 18c-9-.2-17.8-.2-26.6 0-3.2.3-5 2-5 5.2.6 33.7.6 116 0 151.5 0 3.5 1.8 4.8 5.2 4.6 30.3-2.5 90.6 7.6 117.4 1.9 2.7-.7 4.1-2.6 4.4-5.6.2-7 .4-13.6 0-20.8 0-3.4-2.1-4.8-5.6-4.1-21 4.1-68.4 2-82.5 1.1-1.6-.2-2.5-1.1-2.5-2.8l-.2-11c-.5-18-.3-81.4.4-114.6 0-3.3-1.8-5.1-5-5.3Zm19.8 53.2c0 21.5.7 50.1.3 65.6 0 2.3 1.8 3.2 5.3 3.2 5.5-.2 12-.2 17.5 0 3.5 0 5.3-1.6 5.1-5-.2-7.9 0-17.8.5-28.2 0-1.9.9-2.8 2.5-2.8 3.7-.2 7.2-.2 10.9 0 1.8 0 2.7 1 2.7 2.8 0 10.4.3 20.3 0 28.2-.2 3.4 1.7 5 5.1 5 5.8-.2 13-.2 19 0 3.4 0 5-1.6 5-5-.7-14.6-.7-37.2-.7-63.8-.4-41.1-10.8-54.7-36-54.7-26.6 0-37.2 14-37.2 54.7Zm28.9 5.8c-.5-17.6-2.8-32.6 7.4-32.6 9 0 8.3 15.2 8.3 32.6 0 1.8-1.2 2.7-2.8 2.7h-10.1c-1.6 0-2.8-.9-2.8-2.7Zm-180 103.2c9 .3 17.8.3 26.6 0 3.2-.2 5-2 4.9-5.3-.3-10-.5-27.5-.5-46.6 0-1.9 1-2.8 2.8-2.8 29.3 0 56.6-18.5 56.6-53.4 0-37.4-19.2-53.6-65.4-53.6-12.7 0-10.9 0-24.5-.2-3.7 0-5.5 1.8-5.3 5 .7 31.3 1 124.1 0 151.6-.2 3.3 1.6 5.1 4.8 5.3Zm31-88.2c.2-17.8.2-33.7.5-43 0-.9.9-1.4 2.7-1.4 15.5 0 24 6.5 24 24.3 0 18.2-12.4 21-24.2 22.6-1.8.3-3-.7-3-2.5ZM677.7 18.3a320 320 0 0 0-25.7-.2c-4.1.2-6.2 2-6.2 5.3.7 34.2.7 113.4 0 151.7 0 3.3 1.8 4.9 5 5.1 8.4.3 16 .3 24.3 0 3.3-.2 5.1-1.8 5.1-5.3-.4-22.9-.7-55.4-.4-89.1 0-2.8 2.3-3.3 3.2-.7l16.8 41c2.4 4 4.9 5 7.4 2.6 1.7-1.6 2.1-3.2 2.8-5.5L723.4 86c1-2.6 3-2.1 3 .4.2 32.2 0 67.3-.4 88.7 0 3.3 1.8 5.1 5 5.1 8.3.3 16 .3 24.3 0 3.2 0 5-1.8 5-5a5538 5538 0 0 1 0-151.8c0-3.3-1.8-5.1-5.2-5.3-12-.3-14.8-.3-26.6.2-3 0-5 1.4-6 4L705.2 67c-1 2.6-2.8 2.6-3.7 0l-17.8-44.8c-1-2.5-3-3.9-6-3.9Zm-156 161.5a246 246 0 0 1 26.1 0c3.5 0 5.4-1.6 5.4-5.1-.7-33.3-1-95.9-.5-113.9l.2-9.2c0-1.9 1-2.8 2.8-3 40.7-3.5 60-3 73-1 3.5.7 5.3-.9 5-4.6-.1-6.7-.1-13.1.3-20 0-3-1.1-5.2-4.1-5.9-32.2-6.2-106.3 5.6-135 2.1-3.4-.2-5.3 1.2-5 4.9.2 7 .2 14-.3 21 0 3.2 1.4 5.3 4.7 5.5 7.3 1 15 .5 19.6-.2 1.8-.2 3 .7 3 2.5.2 40 0 95.2-.5 122 0 3.3 1.9 4.9 5.3 4.9Zm50.4.2c17.1-.5 35.3-.5 52.4 0 3.3 0 5.4-1.6 5.4-5 .2-5.6.2-12.6 0-18.3 0-3.3-2.1-5.1-5.4-4.9-7.6.2-14.5.5-22.4 0-1.8-.2-2.7-1.4-2.7-3v-17.5c0-1.7.9-2.8 2.7-2.8 4.4-.2 9-.5 13.7 0 3.2 0 5.3-1.6 5.3-5.1.2-4.6.2-7.8 0-12.5-.3-3.4-2.1-5-5.3-4.8-4.9.2-9.5.2-13.9 0-1.8-.3-2.8-1.4-2.8-3V89.2c0-1.6 1-2.8 2.8-3 8.6-.4 17.1-.4 25.4 0 3.2 0 5.3-1.6 5.3-4.8.3-5.8.3-12.7 0-18.5 0-3.3-2-5.1-5.3-5.1-17.5.5-37.6.5-55.4 0-3.3 0-5.1 1.8-4.9 5 .5 29.2.7 88.3 0 112.1-.2 3.3 1.6 5.1 5.1 5.1ZM343 59.2c0 19.9 10.1 33.5 23.5 44.1 16.4 13 35.6 21.3 35.6 35.4 0 10.1-5.6 15.9-14.3 15.9-10.9 0-14.8-12.3-14.8-24.5 0-3.2-1.6-5-4.9-5.3-7.4-.2-14.8-.2-22.1 0-3.3.2-5.1 1.8-5.1 5-1 30.8 14.3 53.4 48.3 53.4 25.6 0 44.8-16 44.8-41 0-38.9-25.9-47.7-40.7-60.4-15.5-13-18.5-16-18.5-27.7 0-5.8 3.3-11.5 9.5-11.5 10.9 0 12.5 8.7 12.5 18.2 0 3.2 1.6 5 4.8 5.3 7.4.2 14.6.2 22 0 3.4-.2 5-2 5-5.3-.9-29.8-13.6-46.9-40.8-46.9C358 14 343 29.6 343 59.2ZM291.4 18c-9-.3-17.7-.3-26.5 0-3.3.2-5.1 1.8-5.1 5 .7 34 .7 116.5 0 151.8 0 3.3 1.8 5.1 5 5.1 20.6-.5 41-.5 61.5 0 3.3 0 5.1-1.8 5.3-5 .3-6.8.3-13.5 0-20.4-.2-3.5-2-5-5.3-4.9-9.2.7-18.2 1-27.2.7-1.9 0-2.8-.9-2.8-2.7-1-31.7-.5-92.4.2-124.3 0-3.3-1.8-5.1-5-5.3Zm-53.8 0c-9-.3-17.8-.3-26.5 0-3.3.2-5.1 1.8-5.1 5 .7 34.7.7 113.7 0 152 0 3.3 1.8 4.9 5 5.1 8.8.3 17.6.3 26.6 0 3.3-.2 5.1-1.8 5.1-5.3a5538 5538 0 0 1 0-151.7c0-3.3-1.8-4.9-5-5.1ZM19.3 180.2c8.8.3 16.7.3 25.4 0 3.3-.2 5.1-2 5.1-5.3-.2-9.5-.2-27-.4-46.4 0-1.9.9-2.8 2.7-2.8H54c1.8 0 2.7.7 3 2.6 4.4 37.1 28.6 50.5 53.1 52.2 18.5 1.1 63.8 0 79-.3 3.2-.2 4.9-1.8 5-5 .3-7.2.8-14 .3-20.8-.2-3.3-2-4.9-5.3-4.9-35.1-.5-53.4 3.5-75.5-.5-17.8-3.2-24-19.4-26.1-31-.3-1.5.4-2.7 1.6-3.6a50.5 50.5 0 0 0 19.4-42.3c0-37.4-20.1-54.5-65.4-53.8-8 .2-16 0-23.8 0-3.2 0-5 1.8-4.8 5 .7 31.5.7 125 0 151.6-.3 3.3 1.6 5.1 4.8 5.3Zm30-88.9c0-17.6.3-33.3.3-42.3 0-.9 1-1.4 2.8-1.4 15.4 0 24 6.5 24 24.3C76.4 91 64 93.6 52 94c-1.8 0-2.7-1-2.7-2.8ZM119 71.2c0 21.5.7 50.1.2 65.6 0 2.3 1.9 3.2 5.3 3.2 5.6-.2 12-.2 17.6 0 3.4 0 5.3-1.6 5-5-.2-7.9 0-17.8.5-28.2 0-1.9 1-2.8 2.6-2.8 3.7-.2 7.1-.2 10.8 0 1.9 0 2.8 1 2.8 2.8 0 10.4.2 20.3 0 28.2-.2 3.4 1.6 5 5 5 5.9-.2 13-.2 19 0 3.5 0 5.1-1.6 5.1-5-.7-14.6-.7-37.2-.7-63.8-.5-41.1-10.8-54.7-36-54.7-26.6 0-37.2 14-37.2 54.7Zm28.9 5.8c-.5-17.6-2.8-32.6 7.3-32.6 9 0 8.4 15.2 8.4 32.6 0 1.8-1.2 2.7-2.8 2.7h-10.2c-1.6 0-2.7-.9-2.7-2.7Z"/>
</svg>